<svg   viewBox="0 0 24 24" fill="none" xmlns="http://www.w3.org/2000/svg">
<path fill-rule="evenodd" clip-rule="evenodd" d="M7.5 4.75C5.42218 4.75 3.75 6.41655 3.75 8.45732C3.75 8.52293 3.75172 8.58807 3.7551 8.65271C3.75748 8.69808 3.75572 8.74322 3.75 8.78764L3.75 9.12645C3.75 9.96876 3.93205 10.8015 4.28417 11.5688C5.38694 13.9719 7.10191 16.0506 9.26156 17.6004L11.2049 18.995C11.6788 19.335 12.3211 19.335 12.795 18.995L14.7384 17.6004C16.8981 16.0506 18.6131 13.9719 19.7158 11.5688C20.0679 10.8015 20.25 9.96877 20.25 9.12647V8.78759C20.2443 8.74319 20.2425 8.69806 20.2449 8.6527C20.2483 8.58807 20.25 8.52293 20.25 8.45732C20.25 6.41655 18.5778 4.75 16.5 4.75C14.448 4.75 12.7914 6.37567 12.7508 8.38143C12.7425 8.78964 12.4092 9.11625 12.0009 9.11625H11.9991C11.5908 9.11625 11.2575 8.78964 11.2492 8.38143C11.2087 6.37567 9.55199 4.75 7.5 4.75ZM21.7472 8.62725C21.7491 8.64856 21.75 8.67013 21.75 8.69192V9.12647C21.75 10.1851 21.5212 11.2312 21.0791 12.1944C19.8672 14.8355 17.9832 17.1182 15.6129 18.8191L13.6695 20.2137C12.6729 20.9288 11.3269 20.9288 10.3304 20.2137L8.38703 18.8191C6.01675 17.1182 4.13282 14.8355 2.92086 12.1944C2.47883 11.2312 2.25 10.1851 2.25 9.12645L2.25 8.69192C2.25 8.67012 2.25093 8.64853 2.25275 8.6272C2.25092 8.57077 2.25 8.51414 2.25 8.45732C2.25 5.57467 4.60726 3.25 7.5 3.25C9.40647 3.25 11.0802 4.25958 12 5.77326C12.9198 4.25958 14.5935 3.25 16.5 3.25C19.3927 3.25 21.75 5.57467 21.75 8.45732C21.75 8.51415 21.7491 8.5708 21.7472 8.62725Z" fill="currentColor"/>
</svg>
