<svg   viewBox="0 0 24 24" fill="none" xmlns="http://www.w3.org/2000/svg">
<path d="M19 4C20.6569 4 22 5.34315 22 7V17C22 18.6569 20.6569 20 19 20H5C3.34315 20 2 18.6569 2 17V7C2 5.34315 3.34315 4 5 4H19ZM5 5.5C4.17157 5.5 3.5 6.17157 3.5 7V17C3.5 17.8284 4.17157 18.5 5 18.5H19C19.8284 18.5 20.5 17.8284 20.5 17V7C20.5 6.17157 19.8284 5.5 19 5.5H5ZM16.5312 8.41406C16.8547 8.15531 17.3272 8.2078 17.5859 8.53125C17.8447 8.8547 17.7922 9.32719 17.4688 9.58594L13.7178 12.5859C12.7134 13.3894 11.2866 13.3894 10.2822 12.5859L6.53125 9.58594C6.20782 9.32719 6.15534 8.85469 6.41406 8.53125C6.67282 8.20781 7.14531 8.15531 7.46875 8.41406L11.2188 11.415C11.6751 11.7802 12.3238 11.7799 12.7803 11.415L16.5312 8.41406Z" fill="currentColor"/>
</svg>
