<svg   viewBox="0 0 24 24" fill="none" xmlns="http://www.w3.org/2000/svg">
<path fill-rule="evenodd" clip-rule="evenodd" d="M10.8884 2.69637C11.3348 1.76788 12.6652 1.76787 13.1116 2.69637L15.4788 7.61941L20.9274 8.33218C21.9552 8.46663 22.3665 9.72519 21.6143 10.4338L17.6293 14.1879L18.6298 19.55C18.8187 20.5621 17.7422 21.3397 16.8313 20.8491L12 18.2469L7.16868 20.8491C6.25785 21.3397 5.18134 20.5621 5.37019 19.55L6.3707 14.1879L2.38571 10.4338C1.63348 9.72518 2.0448 8.46663 3.07256 8.33218L8.52121 7.61941L10.8884 2.69637ZM12 3.79186L9.79755 8.37235C9.61785 8.74609 9.26008 9.00418 8.84674 9.05825L3.77796 9.72133L7.48504 13.2136C7.7879 13.4989 7.92477 13.9172 7.84869 14.3249L6.91787 19.3135L11.4128 16.8924C11.7791 16.6952 12.2209 16.6952 12.5872 16.8924L17.0821 19.3135L16.1513 14.3249C16.0752 13.9172 16.2121 13.4989 16.515 13.2136L20.222 9.72133L15.1533 9.05825C14.7399 9.00418 14.3822 8.74609 14.2024 8.37235L12 3.79186Z" fill="currentColor"/>
</svg>
